<svg width="360" height="360" viewBox="0 0 360 360" fill="none" xmlns="http://www.w3.org/2000/svg">
  <defs>
    <radialGradient id="glow" cx="0" cy="0" r="1" gradientUnits="userSpaceOnUse" gradientTransform="translate(180 120) scale(220 140)">
      <stop stop-color="#2AE394" stop-opacity="0.35" />
      <stop offset="1" stop-color="#2AE394" stop-opacity="0" />
    </radialGradient>
    <linearGradient id="panel" x1="60" y1="320" x2="300" y2="40" gradientUnits="userSpaceOnUse">
      <stop stop-color="#F7F8F9" />
      <stop offset="1" stop-color="#FFFFFF" />
    </linearGradient>
    <linearGradient id="door" x1="110" y1="284" x2="250" y2="96" gradientUnits="userSpaceOnUse">
      <stop stop-color="#0C3B2C" stop-opacity="0.85" />
      <stop offset="1" stop-color="#14694D" stop-opacity="0.75" />
    </linearGradient>
    <linearGradient id="accent" x1="180" y1="84" x2="180" y2="112" gradientUnits="userSpaceOnUse">
      <stop stop-color="#2AE394" />
      <stop offset="1" stop-color="#50F4AB" />
    </linearGradient>
  </defs>
  <rect width="360" height="360" rx="28" fill="#F1F5F4" />
  <rect width="360" height="360" rx="28" fill="url(#glow)" />
  <rect x="48" y="64" width="264" height="240" rx="24" fill="url(#panel)" />
  <rect x="63" y="86" width="234" height="196" rx="18" fill="#FFFFFF" />
  <rect x="96" y="108" width="168" height="200" rx="16" fill="url(#door)" />
  <rect x="96" y="108" width="168" height="38" fill="#0F4A36" fill-opacity="0.6" />
  <rect x="96" y="108" width="168" height="38" fill="url(#accent)" fill-opacity="0.5" />
  <rect x="168" y="108" width="24" height="200" fill="white" fill-opacity="0.08" />
  <rect x="115" y="150" width="59" height="132" rx="10" fill="#D9F9EB" fill-opacity="0.18" />
  <rect x="186" y="150" width="59" height="132" rx="10" fill="#D9F9EB" fill-opacity="0.12" />
  <circle cx="150" cy="128" r="6" fill="#2AE394" />
  <circle cx="210" cy="128" r="6" fill="#A7F3D1" />
  <rect x="147" y="124" width="6" height="8" fill="white" fill-opacity="0.4" />
  <rect x="207" y="124" width="6" height="8" fill="white" fill-opacity="0.3" />
  <path d="M98 316H262" stroke="#D2EDE2" stroke-width="10" stroke-linecap="round" />
  <path d="M127 196L144 180L161 196" stroke="#2AE394" stroke-width="8" stroke-linecap="round" stroke-linejoin="round" />
  <path d="M199 196L216 212L233 196" stroke="#FFFFFF" stroke-opacity="0.7" stroke-width="8" stroke-linecap="round" stroke-linejoin="round" />
  <rect x="170" y="212" width="20" height="8" rx="4" fill="#2AE394" fill-opacity="0.3" />
  <rect x="112" y="264" width="136" height="16" rx="8" fill="#2AE394" fill-opacity="0.12" />
  <rect x="144" y="278" width="72" height="8" rx="4" fill="#0F4A36" fill-opacity="0.3" />
  <path d="M180 74C201 74 216 62 216 48C216 34 201 22 180 22C159 22 144 34 144 48C144 62 159 74 180 74Z" stroke="#2AE394" stroke-width="4" stroke-linecap="round" stroke-dasharray="8 12" />
  <circle cx="180" cy="48" r="12" fill="#2AE394" fill-opacity="0.22" />
  <circle cx="180" cy="48" r="6" fill="#2AE394" />
  <path d="M180 68V92" stroke="#2AE394" stroke-width="4" stroke-linecap="round" />
</svg>
